<svg xmlns="http://www.w3.org/2000/svg" xmlns:xlink="http://www.w3.org/1999/xlink" width="98.798" height="98.798" viewBox="0 0 98.798 98.798"><defs><style>.a{fill:#39ecff;}.b{fill:#3b78ff;}.c{filter:url(#a);}</style><filter id="a" x="0" y="0" width="98.798" height="98.798" filterUnits="userSpaceOnUse"><feOffset dx="4" dy="4" input="SourceAlpha"/><feGaussianBlur stdDeviation="5" result="b"/><feFlood flood-opacity="0.251"/><feComposite operator="in" in2="b"/><feComposite in="SourceGraphic"/></filter></defs><g transform="translate(-786.884 -1431.893)"><g class="c" transform="matrix(1, 0, 0, 1, 786.88, 1431.89)"><circle class="a" cx="34.399" cy="34.399" r="34.399" transform="translate(11 11)"/></g><path class="b" d="M817.453,1479.015l14.328,5.992a1.311,1.311,0,0,0,1.005,0l14.328-5.992a1.3,1.3,0,0,0,.557-1.959L833.343,1457a1.3,1.3,0,0,0-2.119,0l-14.329,20.06a1.3,1.3,0,0,0,.558,1.959Zm16.133,2.833v-20.03l11.017,15.424Zm-2.6-20.03v20.03l-11.017-4.606Z"/><path class="b" d="M847.712,1483.191a1.312,1.312,0,0,0-1.6-.5l-13.826,5.78-13.826-5.78a1.3,1.3,0,0,0-1.375,2.168l14.329,12.941a1.3,1.3,0,0,0,1.745,0l14.328-12.941a1.3,1.3,0,0,0,.228-1.665Zm-15.429,11.884-7.8-7.044,7.3,3.051a1.3,1.3,0,0,0,1.005,0l7.3-3.051-7.8,7.044Z"/></g></svg>