<svg xmlns="http://www.w3.org/2000/svg" xmlns:xlink="http://www.w3.org/1999/xlink" width="104.655" height="104.655" viewBox="0 0 104.655 104.655"><defs><style>.a{fill:#163b72;}.b{fill:#3b78ff;}.c{filter:url(#a);}</style><filter id="a" x="0" y="0" width="104.655" height="104.655" filterUnits="userSpaceOnUse"><feOffset dx="4" dy="4" input="SourceAlpha"/><feGaussianBlur stdDeviation="5" result="b"/><feFlood flood-opacity="0.251"/><feComposite operator="in" in2="b"/><feComposite in="SourceGraphic"/></filter></defs><g transform="translate(-359.334 -1968.294)"><g class="c" transform="matrix(1, 0, 0, 1, 359.33, 1968.29)"><circle class="a" cx="37.327" cy="37.327" r="37.327" transform="translate(11 11)"/></g><path class="b" d="M399.323,2030a4.809,4.809,0,0,0,3.833,1.884h15.819a2.1,2.1,0,0,0,0-4.21H403.156a.632.632,0,0,1-.611-.792l2.6-9.9,6.145-2.276a2.1,2.1,0,0,0-1.462-3.948l-3.379,1.252,2.568-9.8a2.105,2.105,0,0,0-4.073-1.068l-3.316,12.648-6.009,2.225a2.105,2.105,0,1,0,1.462,3.948l3.244-1.2-1.849,7.051A4.811,4.811,0,0,0,399.323,2030Z"/></g></svg>