<svg xmlns="http://www.w3.org/2000/svg" xmlns:xlink="http://www.w3.org/1999/xlink" width="71.901" height="71.901" viewBox="0 0 71.901 71.901"><defs><style>.a{fill:#163b72;}.b{fill:#3b78ff;}.c{filter:url(#a);}</style><filter id="a" x="0" y="0" width="71.901" height="71.901" filterUnits="userSpaceOnUse"><feOffset dx="4" dy="4" input="SourceAlpha"/><feGaussianBlur stdDeviation="5" result="b"/><feFlood flood-opacity="0.251"/><feComposite operator="in" in2="b"/><feComposite in="SourceGraphic"/></filter></defs><g transform="translate(-882.991 -166.021)"><g class="c" transform="matrix(1, 0, 0, 1, 882.99, 166.02)"><circle class="a" cx="20.95" cy="20.95" r="20.95" transform="translate(11 11)"/></g><path class="b" d="M910.262,205.482a2.7,2.7,0,0,0,2.151,1.057h8.879a1.182,1.182,0,0,0,0-2.363h-8.879a.355.355,0,0,1-.343-.444l1.458-5.559,3.448-1.277a1.181,1.181,0,0,0-.82-2.216l-1.9.7,1.441-5.5a1.181,1.181,0,0,0-2.285-.6l-1.861,7.1-3.373,1.25a1.181,1.181,0,1,0,.821,2.215l1.82-.674-1.037,3.958A2.694,2.694,0,0,0,910.262,205.482Z"/></g></svg>