<svg xmlns="http://www.w3.org/2000/svg" xmlns:xlink="http://www.w3.org/1999/xlink" width="280.651" height="281.334" viewBox="0 0 280.651 281.334"><defs><style>.a{fill:#f5f5f5;opacity:0.5;}.b{fill:url(#a);}.c{fill:none;stroke:#6b00a3;stroke-miterlimit:10;stroke-width:0.75px;}</style><linearGradient id="a" x1="-0.27" y1="1.031" x2="1.11" y2="-0.048" gradientUnits="objectBoundingBox"><stop offset="0" stop-color="#14e5ef"/><stop offset="1" stop-color="#6b00a3"/></linearGradient></defs><g transform="translate(-151.294 -846.065)"><path class="a" d="M151.294,927.844v117.777a22.89,22.89,0,0,0,11.445,19.823l102,58.889a22.89,22.89,0,0,0,22.89,0l102-58.889a22.888,22.888,0,0,0,11.445-19.823V927.844a22.889,22.889,0,0,0-11.445-19.824l-102-58.888a22.89,22.89,0,0,0-22.89,0l-102,58.888A22.891,22.891,0,0,0,151.294,927.844Z"/><path class="b" d="M356.32,949.039l-47.514-19.727a4.849,4.849,0,0,0-3.718,0l-47.513,19.727a4.849,4.849,0,0,0-2.99,4.478V977.5a81.193,81.193,0,0,0,50.53,75.2,4.844,4.844,0,0,0,3.665,0,81.192,81.192,0,0,0,50.529-75.2V953.517A4.848,4.848,0,0,0,356.32,949.039ZM349.613,977.5a71.512,71.512,0,0,1-42.666,65.446A71.515,71.515,0,0,1,264.282,977.5V956.754l42.665-17.715,42.666,17.715ZM301.588,993.84,322.428,973a4.848,4.848,0,0,1,6.856,6.857l-24.267,24.267a4.849,4.849,0,0,1-6.857,0l-13.549-13.55a4.848,4.848,0,0,1,6.856-6.856Z"/><path class="c" d="M186.6,929.232v115a22.888,22.888,0,0,0,11.445,19.823l99.593,57.5a22.89,22.89,0,0,0,22.89,0l99.594-57.5a22.89,22.89,0,0,0,11.445-19.823v-115a22.89,22.89,0,0,0-11.445-19.823l-99.594-57.5a22.889,22.889,0,0,0-22.89,0l-99.593,57.5A22.888,22.888,0,0,0,186.6,929.232Z"/></g></svg>