<svg xmlns="http://www.w3.org/2000/svg" xmlns:xlink="http://www.w3.org/1999/xlink" width="104.655" height="104.655" viewBox="0 0 104.655 104.655"><defs><style>.a{fill:#ffce00;}.b{fill:#575756;}.c{filter:url(#a);}</style><filter id="a" x="0" y="0" width="104.655" height="104.655" filterUnits="userSpaceOnUse"><feOffset dx="4" dy="4" input="SourceAlpha"/><feGaussianBlur stdDeviation="5" result="b"/><feFlood flood-color="#ffce00" flood-opacity="0.502"/><feComposite operator="in" in2="b"/><feComposite in="SourceGraphic"/></filter></defs><g transform="translate(-218.596 -1823.398)"><g class="c" transform="matrix(1, 0, 0, 1, 218.6, 1823.4)"><circle class="a" cx="37.327" cy="37.327" r="37.327" transform="translate(11 11)"/></g><path class="b" d="M276.209,1871.725a8.449,8.449,0,0,0-2.413-14.182v-2.734a2.115,2.115,0,0,0-4.229,0v2.115h-4.23v-2.115a2.115,2.115,0,0,0-4.229,0v2.115h-4.229a2.115,2.115,0,0,0,0,4.229h2.115V1882.3h-2.115a2.115,2.115,0,0,0,0,4.229h4.229v2.115a2.115,2.115,0,0,0,4.229,0v-2.115h4.23v2.115a2.115,2.115,0,0,0,4.229,0v-2.734a8.45,8.45,0,0,0,2.413-14.183Zm-12.986-10.572h7.4a4.229,4.229,0,0,1,0,8.458h-7.4Zm7.4,21.145h-7.4v-8.458h7.4a4.229,4.229,0,0,1,0,8.458Z"/></g></svg>