<svg xmlns="http://www.w3.org/2000/svg" xmlns:xlink="http://www.w3.org/1999/xlink" width="98.798" height="98.798" viewBox="0 0 98.798 98.798"><defs><style>.a{fill:#163b72;}.b{fill:#3b78ff;}.c{filter:url(#a);}</style><filter id="a" x="0" y="0" width="98.798" height="98.798" filterUnits="userSpaceOnUse"><feOffset dx="4" dy="4" input="SourceAlpha"/><feGaussianBlur stdDeviation="5" result="b"/><feFlood flood-opacity="0.251"/><feComposite operator="in" in2="b"/><feComposite in="SourceGraphic"/></filter></defs><g transform="translate(-869.343 -1431.893)"><g class="c" transform="matrix(1, 0, 0, 1, 869.34, 1431.89)"><circle class="a" cx="34.399" cy="34.399" r="34.399" transform="translate(11 11)"/></g><path class="b" d="M907.059,1489.623a4.43,4.43,0,0,0,3.532,1.736h14.578a1.94,1.94,0,1,0,0-3.88H910.591a.581.581,0,0,1-.563-.729l2.393-9.127,5.662-2.1a1.94,1.94,0,1,0-1.347-3.638l-3.114,1.153,2.367-9.026a1.94,1.94,0,1,0-3.753-.984l-3.056,11.655-5.537,2.051a1.94,1.94,0,1,0,1.347,3.638l2.989-1.107-1.7,6.5A4.43,4.43,0,0,0,907.059,1489.623Z"/></g></svg>