<svg xmlns="http://www.w3.org/2000/svg" xmlns:xlink="http://www.w3.org/1999/xlink" width="98.798" height="98.798" viewBox="0 0 98.798 98.798"><defs><style>.a{fill:#09c997;}.b{fill:#fff;}.c{filter:url(#a);}</style><filter id="a" x="0" y="0" width="98.798" height="98.798" filterUnits="userSpaceOnUse"><feOffset dx="4" dy="4" input="SourceAlpha"/><feGaussianBlur stdDeviation="5" result="b"/><feFlood flood-opacity="0.251"/><feComposite operator="in" in2="b"/><feComposite in="SourceGraphic"/></filter></defs><g transform="translate(-953.343 -1431.893)"><g class="c" transform="matrix(1, 0, 0, 1, 953.34, 1431.89)"><circle class="a" cx="34.399" cy="34.399" r="34.399" transform="translate(11 11)"/></g><rect class="b" width="6.229" height="27.564" rx="2.557" transform="translate(1012.524 1462.407) rotate(90)"/><path class="b" d="M995.628,1482.5v6.562a3.115,3.115,0,0,0,6.229,0V1482.5c-1.034.048-2.078.073-3.115.073S996.661,1482.548,995.628,1482.5Z"/><path class="b" d="M1001.857,1474.289v.879c7.855.354,12.562,2,12.562,3.227s-4.707,2.872-12.562,3.226q-1.485.068-3.115.07t-3.114-.07c-7.856-.354-12.562-2-12.562-3.226s4.706-2.872,12.562-3.227v-.879c-6.974.326-13.445,1.742-13.445,4.106s6.471,3.779,13.445,4.1c1.033.048,2.078.073,3.114.073s2.081-.025,3.115-.073c6.973-.326,13.444-1.742,13.444-4.1S1008.83,1474.615,1001.857,1474.289Z"/><path class="b" d="M995.628,1462.407v17.008q1.485.067,3.114.07t3.115-.07v-17.008Z"/></g></svg>